<?xml version="1.0" standalone="no"?>
<!DOCTYPE svg PUBLIC "-//W3C//DTD SVG 20010904//EN"
 "http://www.w3.org/TR/2001/REC-SVG-20010904/DTD/svg10.dtd">
<svg version="1.0" xmlns="http://www.w3.org/2000/svg"
 width="300.000000pt" height="219.000000pt" viewBox="0 0 300.000000 219.000000"
 preserveAspectRatio="xMidYMid meet">
<metadata>
Created by potrace 1.10, written by Peter Selinger 2001-2011
</metadata>
<g transform="translate(0.000000,219.000000) scale(0.100000,-0.100000)"
fill="#000000" stroke="none">
<path d="M1349 1697 c-85 -138 -173 -283 -196 -321 -23 -39 -47 -77 -53 -84
-9 -10 -99 -12 -418 -12 l-407 1 -2 -371 -2 -371 165 2 166 2 -1 -123 c-1 -68
-4 -127 -7 -132 -3 -4 388 -8 868 -8 l873 0 -3 132 -3 133 188 -3 188 -3 -2
371 -2 371 -425 -1 -424 -1 -60 113 c-75 142 -164 312 -235 450 l-55 106 -153
-251z m211 38 c0 -2 -9 -5 -20 -8 -11 -3 -20 -10 -20 -16 0 -17 28 -25 44 -12
12 10 25 -10 77 -111 34 -68 84 -162 110 -211 27 -48 49 -89 49 -92 0 -3 -18
-5 -40 -5 l-41 0 -57 119 c-52 109 -59 120 -84 120 l-27 1 22 -37 c12 -21 25
-39 29 -41 4 -2 8 -9 8 -16 0 -8 -10 -11 -28 -8 -58 8 -85 -62 -37 -94 34 -22
73 -11 81 22 6 25 7 25 30 -16 13 -23 24 -44 24 -46 0 -2 -122 -4 -271 -4
l-271 0 15 23 c33 46 117 195 117 206 0 24 18 9 24 -19 9 -48 51 -80 103 -80
38 0 50 5 80 35 33 33 35 39 30 82 -9 79 -84 126 -148 93 -19 -10 -29 3 -11
14 5 3 30 42 57 88 26 46 57 97 67 115 l19 32 35 -66 c19 -36 34 -67 34 -68z
m-125 -151 c8 -4 22 -19 31 -35 13 -25 13 -32 0 -57 -30 -57 -110 -61 -135 -6
-16 35 -14 47 10 78 20 26 57 34 94 20z m163 -193 c23 -14 10 -46 -21 -49 -23
-3 -27 0 -27 21 0 36 19 47 48 28z m683 -151 l379 0 0 -325 0 -325 -1170 0
-1170 0 0 325 0 325 755 0 755 0 17 -40 c15 -33 23 -40 45 -40 20 0 26 4 22
15 -4 8 -9 15 -13 15 -7 0 -31 44 -31 57 0 3 7 2 16 -1 9 -3 186 -6 395 -6z
m25 -696 c-3 -9 -6 -65 -6 -125 l0 -109 -834 0 -835 0 -3 125 -3 125 844 0
c765 0 843 -1 837 -16z"/>
<path d="M1337 1366 c-3 -8 1 -20 10 -27 13 -11 17 -10 29 5 7 11 11 23 8 27
-8 14 -41 10 -47 -5z"/>
<path d="M910 1052 c-32 -32 -45 -91 -35 -158 5 -34 14 -50 39 -69 41 -31 64
-31 107 -2 33 22 35 22 52 5 37 -39 86 -13 94 50 4 27 11 42 20 42 11 0 14
-12 12 -52 -3 -43 0 -54 14 -56 15 -3 17 6 17 60 0 71 10 94 35 85 13 -6 16
-19 14 -74 -2 -59 0 -68 15 -68 14 0 17 11 19 74 3 66 1 75 -19 88 -17 11 -28
12 -42 4 -13 -7 -22 -7 -30 1 -15 15 -31 2 -25 -21 8 -31 -25 -34 -39 -3 -29
60 -108 26 -108 -47 0 -42 -7 -54 -38 -70 -55 -29 -102 19 -102 104 0 50 20
99 45 108 27 11 46 -4 43 -32 -2 -18 2 -26 12 -26 23 0 24 41 1 64 -29 29 -67
26 -101 -7z m225 -108 c0 -10 4 -25 8 -32 5 -7 6 -26 2 -42 -9 -40 -51 -43
-61 -5 -8 33 3 92 19 98 20 9 32 1 32 -19z"/>
<path d="M1612 1064 c-21 -14 -22 -22 -22 -140 0 -104 -2 -124 -15 -124 -23 0
-41 -46 -25 -65 7 -8 20 -15 29 -15 35 0 41 21 41 137 0 106 1 113 20 113 11
0 20 5 20 10 0 6 -9 10 -20 10 -20 0 -25 15 -14 44 8 20 33 21 40 1 8 -19 24
-20 24 -1 0 18 -27 46 -43 46 -7 0 -23 -7 -35 -16z m-26 -311 c-5 -12 -10 -13
-18 -5 -8 8 -8 15 3 28 15 18 25 4 15 -23z"/>
<path d="M2064 1045 c-4 -9 -4 -27 -1 -41 4 -23 2 -25 -23 -19 -26 6 -60 -14
-60 -35 0 -4 -9 -10 -20 -13 -13 -3 -20 0 -20 8 0 20 -29 45 -51 45 -10 0 -34
-14 -51 -31 -30 -28 -33 -29 -45 -12 -34 50 -56 55 -93 25 -34 -27 -40 -112
-11 -141 42 -42 97 -17 104 49 6 50 27 51 27 1 0 -30 6 -44 22 -55 48 -34 87
-14 97 51 9 52 31 55 31 5 0 -25 6 -45 18 -55 23 -21 61 -22 69 -2 5 14 8 14
24 -1 10 -9 25 -14 34 -11 19 8 20 27 0 27 -12 0 -15 19 -15 110 0 92 -2 110
-15 110 -9 0 -18 -7 -21 -15z m-302 -102 c-2 -12 1 -24 6 -27 5 -3 7 -20 3
-38 -8 -41 -43 -51 -61 -18 -12 22 -5 76 13 98 16 20 42 10 39 -15z m150 3
c-2 -9 1 -23 6 -29 5 -7 5 -25 0 -45 -7 -27 -13 -33 -31 -30 -19 3 -22 10 -25
51 -2 28 2 55 9 63 16 20 45 13 41 -10z m146 -38 c-3 -60 -4 -63 -28 -63 -22
0 -25 5 -28 38 -4 42 19 87 44 87 12 0 14 -12 12 -62z"/>
<path d="M1440 933 c0 -75 -10 -99 -34 -90 -11 5 -14 14 -10 36 14 71 -15 122
-60 105 -22 -8 -20 -24 3 -24 24 0 31 -18 24 -67 -9 -65 29 -107 65 -71 9 9
12 -1 12 -45 0 -58 4 -64 29 -48 10 7 12 20 7 51 -6 38 -5 41 14 35 45 -14 80
23 80 86 0 56 -30 93 -67 84 -12 -3 -25 -1 -28 5 -3 5 -13 10 -21 10 -11 0
-14 -15 -14 -67z m91 6 c13 -25 4 -82 -16 -99 -28 -23 -40 -5 -38 56 1 33 2
60 2 62 4 11 43 -3 52 -19z"/>
</g>
</svg>
